<?xml version="1.0" encoding="UTF-8" standalone="no"?>
<svg
   width="736"
   height="569.55554"
   viewBox="0 0 7360 5695.5554"
   version="1.1"
   id="svg76"
   sodipodi:docname="mountains_portrait_2.svg"
   inkscape:version="1.2 (dc2aedaf03, 2022-05-15)"
   xmlns:inkscape="http://www.inkscape.org/namespaces/inkscape"
   xmlns:sodipodi="http://sodipodi.sourceforge.net/DTD/sodipodi-0.dtd"
   xmlns="http://www.w3.org/2000/svg"
   xmlns:svg="http://www.w3.org/2000/svg">
  <defs
     id="defs80">
    <clipPath
       clipPathUnits="userSpaceOnUse"
       id="clipPath2119">
      <rect
         style="fill:#ffffff;fill-opacity:0.2;stroke:#000000;stroke-width:0"
         id="rect2121"
         width="8702.0078"
         height="5695.5557"
         x="-651.39783"
         y="3381.147" />
    </clipPath>
    <clipPath
       clipPathUnits="userSpaceOnUse"
       id="clipPath2123">
      <rect
         style="fill:#ffffff;fill-opacity:0.2;stroke:#000000;stroke-width:0"
         id="rect2125"
         width="8702.0078"
         height="5695.5557"
         x="-651.39783"
         y="3381.147" />
    </clipPath>
    <clipPath
       clipPathUnits="userSpaceOnUse"
       id="clipPath2127">
      <rect
         style="fill:#ffffff;fill-opacity:0.2;stroke:#000000;stroke-width:0"
         id="rect2129"
         width="8702.0078"
         height="5695.5557"
         x="-651.39783"
         y="3381.147" />
    </clipPath>
    <clipPath
       clipPathUnits="userSpaceOnUse"
       id="clipPath2131">
      <rect
         style="fill:#ffffff;fill-opacity:0.2;stroke:#000000;stroke-width:0"
         id="rect2133"
         width="8702.0078"
         height="5695.5557"
         x="-651.39783"
         y="3381.147" />
    </clipPath>
    <clipPath
       clipPathUnits="userSpaceOnUse"
       id="clipPath2135">
      <rect
         style="fill:#ffffff;fill-opacity:0.2;stroke:#000000;stroke-width:0"
         id="rect2137"
         width="8702.0078"
         height="5695.5557"
         x="-651.39783"
         y="3381.147" />
    </clipPath>
    <clipPath
       clipPathUnits="userSpaceOnUse"
       id="clipPath2139">
      <rect
         style="fill:#ffffff;fill-opacity:0.2;stroke:#000000;stroke-width:0"
         id="rect2141"
         width="8702.0078"
         height="5695.5557"
         x="-651.39783"
         y="3381.147" />
    </clipPath>
    <clipPath
       clipPathUnits="userSpaceOnUse"
       id="clipPath2143">
      <rect
         style="fill:#ffffff;fill-opacity:0.2;stroke:#000000;stroke-width:0"
         id="rect2145"
         width="8702.0078"
         height="5695.5557"
         x="-651.39783"
         y="3381.147" />
    </clipPath>
    <clipPath
       clipPathUnits="userSpaceOnUse"
       id="clipPath2147">
      <rect
         style="fill:#ffffff;fill-opacity:0.2;stroke:#000000;stroke-width:0"
         id="rect2149"
         width="8702.0078"
         height="5695.5557"
         x="-651.39783"
         y="3381.147" />
    </clipPath>
    <clipPath
       clipPathUnits="userSpaceOnUse"
       id="clipPath2151">
      <rect
         style="fill:#ffffff;fill-opacity:0.2;stroke:#000000;stroke-width:0"
         id="rect2153"
         width="8702.0078"
         height="5695.5557"
         x="-651.39783"
         y="3381.147" />
    </clipPath>
    <clipPath
       clipPathUnits="userSpaceOnUse"
       id="clipPath2155">
      <rect
         style="fill:#ffffff;fill-opacity:0.2;stroke:#000000;stroke-width:0"
         id="rect2157"
         width="8702.0078"
         height="5695.5557"
         x="-651.39783"
         y="3381.147" />
    </clipPath>
    <clipPath
       clipPathUnits="userSpaceOnUse"
       id="clipPath2159">
      <rect
         style="fill:#ffffff;fill-opacity:0.2;stroke:#000000;stroke-width:0"
         id="rect2161"
         width="8702.0078"
         height="5695.5557"
         x="-651.39783"
         y="3381.147" />
    </clipPath>
    <clipPath
       clipPathUnits="userSpaceOnUse"
       id="clipPath2163">
      <rect
         style="fill:#ffffff;fill-opacity:0.2;stroke:#000000;stroke-width:0"
         id="rect2165"
         width="8702.0078"
         height="5695.5557"
         x="-651.39783"
         y="3381.147" />
    </clipPath>
    <clipPath
       clipPathUnits="userSpaceOnUse"
       id="clipPath2167">
      <rect
         style="fill:#ffffff;fill-opacity:0.2;stroke:#000000;stroke-width:0"
         id="rect2169"
         width="8702.0078"
         height="5695.5557"
         x="-651.39783"
         y="3381.147" />
    </clipPath>
    <clipPath
       clipPathUnits="userSpaceOnUse"
       id="clipPath2171">
      <rect
         style="fill:#ffffff;fill-opacity:0.2;stroke:#000000;stroke-width:0"
         id="rect2173"
         width="8702.0078"
         height="5695.5557"
         x="-651.39783"
         y="3381.147" />
    </clipPath>
    <clipPath
       clipPathUnits="userSpaceOnUse"
       id="clipPath2175">
      <rect
         style="fill:#ffffff;fill-opacity:0.2;stroke:#000000;stroke-width:0"
         id="rect2177"
         width="8702.0078"
         height="5695.5557"
         x="-651.39783"
         y="3381.147" />
    </clipPath>
    <clipPath
       clipPathUnits="userSpaceOnUse"
       id="clipPath2179">
      <rect
         style="fill:#ffffff;fill-opacity:0.2;stroke:#000000;stroke-width:0"
         id="rect2181"
         width="8702.0078"
         height="5695.5557"
         x="-651.39783"
         y="3381.147" />
    </clipPath>
    <clipPath
       clipPathUnits="userSpaceOnUse"
       id="clipPath2183">
      <rect
         style="fill:#ffffff;fill-opacity:0.2;stroke:#000000;stroke-width:0"
         id="rect2185"
         width="8702.0078"
         height="5695.5557"
         x="-651.39783"
         y="3381.147" />
    </clipPath>
  </defs>
  <sodipodi:namedview
     id="namedview78"
     pagecolor="#ffffff"
     bordercolor="#000000"
     borderopacity="0.25"
     inkscape:showpageshadow="2"
     inkscape:pageopacity="0.0"
     inkscape:pagecheckerboard="0"
     inkscape:deskcolor="#d1d1d1"
     showgrid="false"
     inkscape:zoom="0.59871245"
     inkscape:cx="368.29032"
     inkscape:cy="280.60215"
     inkscape:window-width="1920"
     inkscape:window-height="1017"
     inkscape:window-x="-8"
     inkscape:window-y="-8"
     inkscape:window-maximized="1"
     inkscape:current-layer="svg76" />
  <g
     id="l3EMCmHSoY57aROQv0dKMeg"
     fill="#010508"
     clip-path="url(#clipPath2183)"
     transform="translate(0,-3381.147)">
    <g
       id="g4">
      <path
         id="pt9gtsFvj"
         d="m 5745,6921 c -4,-33 -4,-65 0,-70 3,-6 28,-11 56,-11 48,0 49,1 49,30 0,18 6,33 15,36 9,4 15,19 15,40 v 34 h -64 -64 z" />
      <path
         id="p13fJFs5N6"
         d="m 5280,6146 c 0,-728 -2,-826 -15,-826 -20,0 -20,-54 0,-110 8,-23 15,-76 15,-116 v -74 h 59 c 33,0 62,4 65,9 4,5 9,37 12,70 5,44 4,61 -5,61 -9,0 -11,217 -11,896 1,493 -1,898 -4,902 -3,3 -31,7 -61,10 l -55,4 z" />
    </g>
  </g>
  <g
     id="l4QNa694OV17iBlApypRvt5"
     fill="#07111d"
     clip-path="url(#clipPath2179)"
     transform="translate(0,-3381.147)">
    <g
       id="g8">
      <path
         id="pMvqmaxN"
         d="m 4688,7026 c -46,-59 -58,-83 -58,-111 0,-35 0,-35 44,-35 43,0 44,-1 48,-37 7,-54 517,-1564 536,-1585 22,-26 35,-22 27,9 -5,23 -4,25 9,14 15,-12 16,65 16,821 0,735 2,835 15,835 8,0 15,-7 16,-16 0,-10 2,-12 6,-3 17,43 27,-26 23,-160 v -28 h 89 c 58,0 92,4 97,12 4,6 9,44 12,85 l 5,73 -79,2 c -54,1 -32,4 71,9 83,4 165,5 183,2 26,-4 32,-2 32,13 0,15 8,19 38,21 29,1 33,0 20,-8 -10,-6 -18,-15 -18,-21 0,-8 24,-9 78,-4 42,4 108,10 145,13 l 68,6 25,48 c 13,27 24,63 24,81 v 33 l -708,3 -707,3 z" />
    </g>
  </g>
  <g
     id="l5n0iCnO6usy03eQOeAqpRb"
     fill="#071a21"
     clip-path="url(#clipPath2175)"
     transform="translate(0,-3381.147)">
    <g
       id="g13">
      <path
         id="pwos9XJKp"
         d="M 0,10964 V 7948 l 28,5 c 15,3 79,14 142,26 63,11 183,34 265,51 83,16 193,33 245,36 52,4 97,10 100,13 13,16 65,31 105,31 25,0 45,5 45,10 0,6 12,10 28,10 15,0 137,20 272,45 135,25 274,51 310,56 36,6 79,15 96,20 32,10 61,16 219,44 44,8 100,19 125,24 25,5 77,15 115,21 39,7 79,16 90,21 11,4 54,12 95,18 142,19 275,40 315,51 75,21 180,41 265,51 47,5 87,14 88,19 2,6 17,10 32,10 16,0 55,7 86,15 32,8 106,18 166,21 81,5 108,10 108,21 0,8 11,13 28,13 15,0 45,7 67,15 22,8 58,14 79,15 22,0 65,6 95,14 117,30 200,46 237,46 22,0 59,7 84,16 25,9 74,16 110,16 63,-1 150,16 150,29 0,3 55,16 123,28 67,12 145,26 172,32 243,52 307,62 468,76 37,3 67,9 67,14 0,5 17,9 38,9 20,0 53,8 72,18 19,11 61,22 93,26 32,3 77,11 100,16 72,17 369,69 427,75 68,7 152,25 165,35 6,4 39,13 75,19 36,7 136,25 223,42 87,16 169,29 182,29 13,0 27,4 30,10 3,5 23,10 44,10 21,0 60,7 87,15 27,8 67,15 89,15 22,0 56,5 75,11 19,6 60,14 90,19 30,5 78,14 105,20 28,6 86,16 130,22 44,5 89,14 100,19 11,5 63,17 115,27 l 95,18 3,2322 2,2322 H 3680 0 Z" />
      <path
         id="pAMMUDx5v"
         d="m 990,7251 c -8,-4 -33,-16 -55,-27 -35,-17 -40,-24 -43,-56 -3,-38 -3,-38 35,-38 21,0 65,13 101,30 59,28 62,31 62,65 0,35 0,35 -42,34 -24,0 -50,-4 -58,-8 z" />
    </g>
  </g>
  <g
     id="l5zj0CfqdCEIOerffJOabSh"
     fill="#0b212c"
     clip-path="url(#clipPath2171)"
     transform="translate(0,-3381.147)">
    <g
       id="g17">
      <path
         id="psLT6gPSX"
         d="m 7230,9349 c -52,-11 -102,-22 -110,-26 -8,-3 -18,-6 -21,-5 -7,1 -160,-26 -219,-39 -25,-5 -70,-14 -100,-19 -30,-5 -71,-13 -90,-19 -19,-6 -53,-11 -75,-11 -22,0 -62,-7 -89,-15 -27,-8 -66,-15 -87,-15 -21,0 -41,-4 -44,-10 -3,-5 -17,-10 -30,-10 -13,0 -95,-13 -182,-29 -87,-17 -187,-35 -223,-42 -36,-6 -69,-15 -75,-19 -12,-9 -66,-21 -110,-25 -35,-3 -80,-11 -191,-30 -44,-8 -94,-17 -110,-19 -16,-3 -40,-7 -54,-11 -26,-6 -69,-14 -210,-38 -47,-8 -96,-21 -110,-28 -14,-8 -47,-14 -72,-14 -30,0 -44,-3 -41,-11 3,-7 -12,-11 -44,-10 -26,0 -61,-3 -78,-8 -16,-4 -40,-7 -53,-7 -13,1 -67,-8 -120,-19 -53,-11 -110,-22 -127,-24 -16,-3 -59,-12 -95,-21 -36,-8 -120,-24 -187,-36 -68,-12 -123,-26 -123,-31 0,-5 -4,-6 -10,-3 -5,3 -21,-2 -35,-11 -17,-11 -29,-14 -36,-7 -11,11 -168,-10 -199,-27 -10,-6 -37,-10 -60,-10 -40,0 -121,-15 -241,-46 -30,-8 -71,-14 -90,-14 -19,0 -52,-5 -74,-12 -54,-16 -52,-15 -80,-17 -15,0 -25,-7 -25,-16 0,-18 -27,-20 -32,-3 -3,8 -9,8 -19,2 -8,-5 -25,-10 -39,-11 -53,-3 -127,-15 -183,-29 -32,-8 -72,-14 -88,-14 -16,0 -29,-4 -29,-10 0,-5 -7,-7 -15,-4 -8,4 -21,1 -29,-5 -7,-6 -15,-9 -18,-6 -5,5 -222,-35 -293,-55 -40,-11 -173,-32 -315,-51 -41,-6 -84,-14 -95,-18 -11,-5 -51,-14 -90,-21 -38,-6 -90,-16 -115,-21 -39,-8 -159,-29 -242,-43 -16,-3 -44,-9 -63,-15 -19,-5 -35,-7 -35,-4 0,3 -7,0 -15,-7 -8,-7 -22,-9 -31,-6 -9,4 -22,2 -29,-4 -7,-6 -17,-10 -21,-9 -5,1 -11,1 -14,0 -3,-2 -21,-4 -40,-7 -56,-7 -171,-28 -370,-68 -69,-14 -140,-26 -157,-26 -18,0 -33,-4 -33,-10 0,-5 -19,-10 -42,-10 -43,0 -108,-19 -108,-31 0,-4 -20,-6 -44,-4 -24,2 -63,-1 -87,-6 -97,-20 -380,-73 -479,-89 C 82,8000 27,7988 18,7985 1,7978 0,7948 0,7554 v -424 h 28 c 15,0 77,16 139,37 l 112,38 48,-19 c 171,-66 365,-130 404,-133 38,-4 62,2 130,32 46,20 89,44 96,54 12,17 95,51 125,51 8,0 88,33 179,74 l 166,74 224,-24 c 123,-14 274,-27 336,-31 l 112,-6 92,52 92,53 46,-45 c 27,-27 63,-50 88,-57 28,-9 61,-32 104,-76 61,-62 65,-64 114,-64 50,0 50,1 243,160 l 192,160 108,1 c 59,1 121,4 137,8 17,4 46,3 65,-1 19,-4 62,-12 95,-18 33,-6 80,-14 105,-19 312,-62 325,-62 552,-21 l 164,29 109,-20 c 61,-12 153,-23 205,-26 l 95,-4 230,107 c 127,59 235,107 240,106 10,-1 104,-13 240,-30 39,-5 135,-17 215,-27 80,-9 154,-21 165,-26 25,-11 154,-83 226,-127 30,-18 65,-35 79,-37 74,-15 128,-28 155,-36 17,-5 82,-20 145,-35 63,-14 216,-50 340,-80 124,-30 257,-62 295,-70 39,-9 115,-27 170,-40 55,-13 112,-24 128,-24 h 27 v 1150 c 0,1089 -1,1150 -17,1149 -10,0 -61,-9 -113,-20 z M 1060,7224 c 0,-8 -130,-67 -136,-61 -8,8 39,37 67,42 12,3 27,9 33,15 11,11 36,14 36,4 z" />
    </g>
  </g>
  <g
     id="l546el367d9mIkA2AKouWD8"
     fill="#0b1d34"
     clip-path="url(#clipPath2167)"
     transform="translate(0,-3381.147)">
    <g
       id="g21">
      <path
         id="pjOVgOkdc"
         d="m 5527,6781 c -5,-19 -13,-21 -81,-21 h -76 v -815 c 0,-589 3,-815 11,-815 6,0 9,-7 5,-15 -3,-10 1,-15 14,-15 22,0 19,-6 60,165 17,72 44,186 60,255 16,69 41,172 54,230 146,622 199,844 211,891 8,30 15,76 15,102 v 47 h -112 c -62,0 -123,3 -134,6 -16,4 -23,0 -27,-15 z" />
    </g>
  </g>
  <g
     id="l7jBuwhDENbtyxa4X3ec1ER"
     fill="#1d2c3b"
     clip-path="url(#clipPath2163)"
     transform="translate(0,-3381.147)">
    <g
       id="g25">
      <path
         id="pJNYlwTe"
         d="m 0,6476 v -244 l 31,-6 c 63,-12 209,-6 291,13 46,11 160,43 253,71 364,110 579,146 1164,194 381,32 412,33 936,51 1286,43 1474,51 1660,70 77,8 164,15 193,15 h 53 l -3,38 -3,37 -2287,3 -2288,2 z" />
    </g>
  </g>
  <g
     id="l29PiPvEjK5Pn06iw4KmhAf"
     fill="#2f4658"
     clip-path="url(#clipPath2159)"
     transform="translate(0,-3381.147)">
    <g
       id="g30">
      <path
         id="p1GLTmODiS"
         d="m 4643,6723 c -73,-2 -133,-8 -133,-13 0,-5 -33,-11 -72,-13 l -73,-3 87,-2 c 94,-2 136,-22 46,-22 -29,0 -116,-7 -193,-15 -186,-19 -374,-27 -1660,-70 -524,-18 -555,-19 -936,-51 -585,-48 -800,-84 -1164,-194 -276,-83 -324,-93 -443,-86 l -102,6 v -295 c 0,-234 3,-295 13,-295 7,0 75,23 151,50 215,78 289,97 596,150 866,147 1060,181 1105,189 30,6 68,6 95,1 25,-5 144,-25 265,-45 121,-19 292,-49 380,-65 88,-17 196,-37 240,-45 351,-63 735,-151 890,-204 134,-46 267,-72 490,-96 412,-45 581,-79 880,-176 90,-29 140,-37 133,-20 -1,5 -102,304 -223,665 -121,361 -224,655 -230,654 -5,-1 -70,-4 -142,-5 z" />
      <path
         id="pzGevipvx"
         d="m 5768,6714 c -7,-14 -14,-43 -224,-934 -46,-198 -86,-365 -98,-416 l -12,-51 127,-46 c 70,-26 132,-47 138,-47 7,0 22,-6 34,-14 12,-7 54,-24 92,-37 39,-12 93,-33 120,-45 28,-12 77,-30 110,-39 33,-10 77,-26 97,-36 20,-10 75,-30 122,-43 46,-14 113,-38 148,-55 35,-16 95,-39 133,-51 39,-11 78,-25 87,-30 25,-14 125,-46 188,-60 30,-7 71,-21 90,-31 60,-30 152,-42 278,-36 64,3 127,9 140,13 l 22,6 v 974 974 h -718 c -396,0 -753,3 -794,6 -41,4 -77,3 -80,-2 z" />
    </g>
  </g>
  <g
     id="l1gwvCGg5I1f04Ye7pBhTHz"
     fill="#4c6584"
     clip-path="url(#clipPath2155)"
     transform="translate(0,-3381.147)">
    <g
       id="g34">
      <path
         id="pANb9WWDy"
         d="m 1830,6089 c -41,-8 -350,-61 -1100,-189 -305,-53 -380,-71 -590,-148 L 5,5704 2,5399 0,5094 107,5077 c 60,-10 191,-38 292,-63 177,-43 244,-64 564,-173 118,-41 160,-51 212,-51 83,0 86,2 366,188 123,82 234,154 246,161 19,9 48,7 155,-14 82,-15 167,-25 223,-25 99,0 96,-1 295,117 47,27 153,89 235,138 83,48 214,126 293,172 138,81 146,85 190,79 182,-22 196,-21 279,19 43,21 119,50 168,65 108,33 117,49 43,73 -92,29 -552,129 -793,172 -44,8 -152,28 -240,45 -88,16 -259,46 -380,65 -121,20 -242,40 -268,45 -56,12 -95,11 -157,-1 z" />
    </g>
  </g>
  <g
     id="l6KzAuNN8W0xdqLOfCU5zFe"
     fill="#678091"
     clip-path="url(#clipPath2151)"
     transform="translate(0,-3381.147)">
    <g
       id="g38">
      <path
         id="plwXlB7SE"
         d="m 3595,5721 c -49,-15 -124,-44 -165,-64 -76,-38 -112,-44 -166,-28 -17,5 -57,12 -90,15 l -59,7 -115,-69 c -63,-38 -198,-117 -300,-177 -102,-59 -223,-131 -270,-158 -186,-110 -201,-117 -266,-117 -33,0 -131,14 -218,30 l -157,31 -142,-92 c -78,-51 -189,-125 -247,-165 -131,-89 -180,-114 -225,-114 -19,0 -101,23 -182,51 -310,106 -383,128 -538,167 -176,44 -371,82 -422,82 H 0 v -223 -224 l 48,-12 c 26,-7 63,-16 82,-21 19,-4 62,-19 95,-33 33,-14 87,-31 120,-37 33,-7 74,-19 92,-26 57,-25 139,-18 233,22 109,47 149,52 192,26 18,-11 44,-23 58,-27 14,-4 54,-20 88,-36 35,-17 78,-33 95,-36 18,-3 41,-12 52,-19 21,-12 153,-66 260,-104 39,-14 95,-24 157,-27 113,-7 125,-3 352,110 77,38 155,71 173,74 18,3 33,11 33,17 0,13 416,221 461,231 24,6 163,-43 344,-120 48,-21 120,-35 173,-35 56,0 75,7 259,96 91,44 144,64 170,64 62,0 83,9 83,37 0,25 82,68 595,313 55,26 163,78 240,115 177,85 279,128 430,181 71,25 121,48 123,56 8,38 -330,106 -753,153 -211,23 -366,52 -459,86 -44,16 -87,29 -95,28 -9,0 -56,-13 -106,-28 z" />
    </g>
  </g>
  <g
     id="l5weT22LDhdbHU9wa1mxjjo"
     fill="#968683"
     clip-path="url(#clipPath2147)"
     transform="translate(0,-3381.147)">
    <g
       id="g43">
      <path
         id="pBzr8Al5D"
         d="m 4557,7153 c -4,-3 -7,-21 -7,-40 v -33 h 130 130 v 40 40 h -123 c -68,0 -127,-3 -130,-7 z" />
      <path
         id="pyyXpblSs"
         d="m 5818,7123 -268,-3 v -24 c 0,-22 5,-25 53,-31 28,-3 159,-5 289,-3 223,3 237,2 232,-14 -3,-12 0,-18 10,-18 9,0 16,5 16,10 0,6 9,10 21,10 17,0 20,5 17,38 l -3,37 h -50 c -27,1 -170,-1 -317,-2 z" />
    </g>
  </g>
  <g
     id="lmYJbYBLn876kgrPJ00FAR"
     fill="#7f9793"
     clip-path="url(#clipPath2143)"
     transform="translate(0,-3381.147)">
    <g
       id="g48">
      <path
         id="p8nvSIc1O"
         d="m 3762,4955 c -195,-95 -235,-123 -184,-126 9,0 1,-7 -18,-14 l -35,-13 67,-1 c 48,-1 95,7 160,27 105,33 200,59 338,93 52,13 98,28 102,34 4,5 8,25 8,43 v 34 l -50,-4 c -28,-1 -50,0 -50,4 0,9 -24,15 -80,23 -42,5 -59,-2 -258,-100 z" />
      <path
         id="p4ZTx8Ph6"
         d="m 2510,4786 c -152,-67 -421,-207 -415,-216 3,-6 -3,-10 -14,-10 -53,0 -5,-42 74,-65 129,-38 152,-44 220,-60 122,-30 177,-15 493,133 148,69 166,87 115,109 -111,48 -334,132 -363,137 -26,4 -54,-3 -110,-28 z" />
    </g>
  </g>
  <g
     id="l4zovF951tUURthdLC1Xe2l"
     fill="#8aa5a0"
     clip-path="url(#clipPath2139)"
     transform="translate(0,-3381.147)">
    <g
       id="g53">
      <path
         id="p16QVEMSRl"
         d="m 4644,5375 c -54,-23 -164,-74 -244,-112 -80,-38 -213,-102 -297,-143 -84,-40 -150,-77 -147,-81 2,-5 21,-11 42,-14 60,-11 73,-16 66,-27 -5,-8 10,-9 49,-5 46,4 55,3 50,-9 -3,-8 -17,-14 -32,-14 -20,0 -23,-2 -11,-10 26,-17 74,-11 217,25 76,19 152,35 170,35 17,0 33,4 35,9 2,6 75,28 163,51 88,22 185,47 215,55 30,8 123,31 205,50 83,20 155,37 162,40 17,6 -34,155 -56,162 -9,2 -25,9 -36,13 -11,5 -117,10 -236,13 l -215,3 z" />
      <path
         id="pauPLcoyd"
         d="m 5436,5323 c -4,-15 -9,-36 -12,-45 -6,-22 20,-24 77,-6 51,15 51,40 2,57 -21,8 -43,16 -49,18 -6,2 -15,-8 -18,-24 z" />
    </g>
  </g>
  <g
     id="l1YFOyOeq6ZeAqYZjWiKLAj"
     fill="#fd8360"
     clip-path="url(#clipPath2135)"
     transform="translate(0,-3381.147)">
    <g
       id="g57">
      <path
         id="pojg1qV5G"
         d="m 5980,5090 c -161,-34 -235,-48 -305,-60 -38,-6 -117,-20 -174,-31 -112,-21 -118,-20 -466,26 -121,16 -455,48 -495,47 -13,0 -26,-5 -28,-11 -2,-6 -18,-11 -35,-11 -31,0 -102,-17 -397,-94 -256,-66 -325,-85 -353,-95 -51,-19 -190,-51 -224,-51 -22,0 -86,-25 -176,-68 -208,-100 -199,-97 -271,-83 l -63,13 -129,-62 c -152,-72 -327,-145 -369,-154 -17,-3 -62,2 -105,13 -149,37 -236,63 -268,78 -45,21 -69,14 -229,-65 -216,-107 -243,-116 -321,-109 -37,3 -94,16 -127,27 -98,35 -239,91 -260,104 -11,7 -34,16 -52,19 -17,3 -60,19 -95,36 -34,16 -74,32 -88,36 -14,4 -38,15 -55,25 -16,10 -51,21 -77,24 -40,6 -59,2 -143,-35 -115,-49 -160,-57 -206,-36 -19,8 -68,22 -109,31 -42,9 -99,28 -129,41 -29,14 -60,25 -69,25 -10,0 -35,7 -57,15 -22,8 -55,14 -72,15 H 0 V 2350 0 h 3680 3680 v 2396 2397 l -42,-7 c -113,-17 -224,-18 -291,-2 -37,9 -77,22 -90,30 -12,7 -47,19 -77,26 -61,14 -162,46 -188,60 -9,5 -48,19 -87,30 -38,12 -98,35 -133,51 -35,17 -100,41 -145,54 -45,13 -107,35 -137,49 -64,30 -76,30 -190,6 z M 4710.3827,4264.6 c 0,-140.1936 -113.6493,-253.843 -253.8429,-253.843 -140.1936,0 -253.843,113.6494 -253.843,253.843 0,140.1936 113.6494,253.8429 253.843,253.8429 140.1936,0 253.8429,-113.6493 253.8429,-253.8429 z M 4552,4499" />
    </g>
  </g>
  <g
     id="l3DFfvfTGISonrcpQnEb37j"
     fill="#91abab"
     clip-path="url(#clipPath2131)"
     transform="translate(0,-3381.147)">
    <g
       id="g61">
      <path
         id="pAt2x2mLL"
         d="m 4855,5456 c -66,-24 -136,-50 -155,-59 l -35,-16 63,2 c 34,1 62,0 62,-3 0,-3 81,-4 181,-3 100,1 188,-2 198,-7 20,-11 44,-18 54,-16 5,0 16,-12 25,-29 23,-44 25,-18 4,45 l -18,55 -110,37 c -60,21 -118,37 -129,37 -11,0 -74,-19 -140,-43 z" />
    </g>
  </g>
  <g
     id="l2tbIHPgmDpfyPhuVRFsCrX"
     fill="#b1a6a1"
     clip-path="url(#clipPath2127)"
     transform="translate(0,-3381.147)">
    <g
       id="g65">
      <path
         id="pbVLt4W7v"
         d="m 4910,7529 c -270,-127 -242,-122 -486,-79 l -130,24 -193,-34 -193,-34 -106,18 c -59,9 -123,21 -142,26 -19,5 -60,13 -90,19 -30,5 -92,17 -138,26 -71,15 -93,15 -149,5 -38,-7 -101,-10 -149,-7 l -84,5 -198,-164 c -109,-91 -206,-164 -217,-164 -12,0 -47,26 -84,64 -43,43 -76,67 -104,76 -25,7 -65,34 -100,66 -32,30 -61,53 -65,51 -4,-2 -53,-30 -110,-62 -120,-67 -65,-65 -502,-20 l -265,27 -305,-137 c -168,-75 -317,-141 -332,-147 -29,-10 -16,-14 -323,97 -173,62 -164,62 -298,15 C 83,7178 23,7160 15,7160 2,7160 0,7128 0,6925 v -235 h 2400 c 2002,0 2400,2 2400,13 0,12 -26,92 -45,140 -7,16 3,17 131,17 77,0 203,3 282,7 l 142,6 v 30 30 l -132,-6 c -281,-14 -518,-20 -518,-13 0,4 26,40 58,81 l 57,75 h 408 c 253,0 406,4 402,9 -7,12 555,20 570,9 5,-5 -1,-8 -14,-8 -12,0 -20,-4 -16,-10 3,-5 -6,-32 -20,-60 -25,-49 -26,-50 -73,-51 -26,0 -83,-6 -127,-12 l -80,-12 -3,-33 c -3,-28 -7,-33 -25,-30 -18,2 -21,8 -19,36 2,20 -1,34 -10,37 -7,3 -98,2 -203,-3 -171,-6 -190,-9 -193,-25 -7,-36 16,-47 95,-47 h 75 l -7,-55 -6,-55 h 121 122 l -4,-38 -3,-37 798,-3 797,-3 v 208 208 l -123,29 c -67,16 -160,37 -207,48 -47,11 -175,41 -285,68 -110,27 -252,60 -315,75 -63,14 -128,29 -145,34 -27,8 -81,21 -155,36 -14,2 -49,19 -79,37 -72,44 -201,116 -226,127 -11,5 -85,17 -165,26 -140,17 -207,25 -355,45 -172,23 -136,31 -395,-91 z m -130,-409 c 0,-6 -40,-10 -101,-10 -64,0 -98,4 -94,10 3,6 48,10 101,10 56,0 94,-4 94,-10 z" />
    </g>
  </g>
  <g
     id="l2D3ZHaHcISFo7cjXvZNcqT"
     fill="#a0bbad"
     clip-path="url(#clipPath2123)"
     transform="translate(0,-3381.147)">
    <g
       id="g69">
      <path
         id="p7u8UTE3X"
         d="m 5503,5324 c 4,-5 -11,-15 -34,-23 l -42,-16 -27,-115 -27,-115 -31,-3 -32,-3 v 74 c 0,64 -14,137 -26,137 -5,0 -332,-79 -394,-95 -146,-38 -370,-95 -375,-95 -12,0 -4,-18 10,-24 9,-3 95,-12 193,-21 97,-8 224,-22 282,-29 293,-41 398,-49 462,-38 221,38 359,62 398,70 172,36 254,52 271,52 39,0 17,17 -43,34 -34,9 -84,27 -112,40 -28,12 -82,33 -121,45 -38,13 -79,29 -90,36 -11,6 -31,14 -45,17 -14,3 -70,22 -125,42 -55,21 -96,34 -92,30 z" />
    </g>
  </g>
  <g
     id="l4u8bfN6j2ZmUSXyup0ML10"
     fill="#ffd5b5"
     clip-path="url(#clipPath2119)"
     transform="translate(0,-3381.147)">
    <g
       id="g73">
      <path
         id="p19zZMkGNM"
         d="m 4748.8778,4264.539 c 0,161.3915 -130.8337,292.2252 -292.2252,292.2252 -161.3915,0 -292.2252,-130.8337 -292.2252,-292.2252 0,-161.3915 130.8337,-292.2252 292.2252,-292.2252 161.3915,0 292.2252,130.8337 292.2252,292.2252 z M 4363,4542" />
    </g>
  </g>
</svg>
